<svg height="100%" stroke-miterlimit="10" style="fill-rule:nonzero;clip-rule:evenodd;stroke-linecap:round;stroke-linejoin:round;" version="1.1" viewBox="0 0 1024 1024" width="100%" xml:space="preserve" xmlns="http://www.w3.org/2000/svg" xmlns:vectornator="http://vectornator.io" xmlns:xlink="http://www.w3.org/1999/xlink">
    <defs/>
    <g id="Monster" vectornator:layerName="Monster">
    <g opacity="1">
    <path d="M19.0371 410.612L322.74 154.325C327.589 150.233 334.838 150.847 338.931 155.696L712.502 598.381C716.594 603.23 715.98 610.48 711.131 614.572L407.428 870.859C402.578 874.952 395.329 874.338 391.237 869.488L17.6662 426.804C13.5736 421.954 14.1874 414.705 19.0371 410.612Z" fill="#773874" fill-rule="nonzero" opacity="1" stroke="#23223e" stroke-linecap="butt" stroke-linejoin="round" stroke-width="10"/>
    <path d="M124.683 466.891L358.594 269.499C363.443 265.407 370.693 266.021 374.785 270.87L566.185 497.681C570.278 502.531 569.664 509.78 564.814 513.872L330.903 711.264C326.053 715.357 318.804 714.743 314.712 709.893L123.312 483.082C119.219 478.233 119.833 470.984 124.683 466.891Z" fill="#5e6c7f" fill-rule="nonzero" opacity="1" stroke="#23223e" stroke-linecap="butt" stroke-linejoin="round" stroke-width="10"/>
    <path d="M334.238 743.269L600.533 518.55C605.382 514.458 612.632 515.071 616.724 519.921L680.815 595.869C684.908 600.719 684.294 607.968 679.444 612.061L413.15 836.78C408.3 840.873 401.051 840.259 396.958 835.409L332.867 759.461C328.775 754.611 329.389 747.362 334.238 743.269Z" fill="#b49db2" fill-rule="nonzero" opacity="1" stroke="#23223e" stroke-linecap="butt" stroke-linejoin="round" stroke-width="10"/>
    </g>
    <g opacity="1">
    <path d="M271.535 212.364L651.188 94.9694C657.251 93.0948 663.685 96.4898 665.56 102.552L836.677 655.945C838.551 662.008 835.156 668.442 829.094 670.317L449.44 787.711C443.377 789.585 436.943 786.19 435.069 780.128L263.952 226.735C262.077 220.673 265.472 214.238 271.535 212.364Z" fill="#348c8d" fill-rule="nonzero" opacity="1" stroke="#23223e" stroke-linecap="butt" stroke-linejoin="round" stroke-width="10"/>
    <path d="M346.828 305.418L639.236 215.002C645.299 213.127 651.733 216.522 653.608 222.585L741.28 506.117C743.155 512.179 739.76 518.614 733.697 520.488L441.289 610.905C435.226 612.78 428.792 609.385 426.917 603.322L339.245 319.79C337.37 313.727 340.765 307.293 346.828 305.418Z" fill="#5e6c7f" fill-rule="nonzero" opacity="1" stroke="#23223e" stroke-linecap="butt" stroke-linejoin="round" stroke-width="10"/>
    <path d="M431.865 641.673L764.756 538.739C770.818 536.864 777.253 540.259 779.127 546.322L808.484 641.263C810.359 647.326 806.964 653.76 800.902 655.635L468.011 758.569C461.949 760.444 455.514 757.049 453.64 750.986L424.282 656.045C422.408 649.982 425.803 643.548 431.865 641.673Z" fill="#afc4c4" fill-rule="nonzero" opacity="1" stroke="#23223e" stroke-linecap="butt" stroke-linejoin="round" stroke-width="10"/>
    </g>
    <g opacity="1">
    <path d="M527.679 165.925L925.068 165.925C931.414 165.925 936.558 171.069 936.558 177.415L936.558 756.659C936.558 763.005 931.414 768.149 925.068 768.149L527.679 768.149C521.333 768.149 516.189 763.005 516.189 756.659L516.189 177.415C516.189 171.069 521.333 165.925 527.679 165.925Z" fill="#c79652" fill-rule="nonzero" opacity="1" stroke="#23223e" stroke-linecap="butt" stroke-linejoin="round" stroke-width="10"/>
    <path d="M572.122 277.069L878.19 277.069C884.536 277.069 889.68 282.213 889.68 288.559L889.68 585.337C889.68 591.682 884.536 596.827 878.19 596.827L572.122 596.827C565.776 596.827 560.632 591.682 560.632 585.337L560.632 288.559C560.632 282.213 565.776 277.069 572.122 277.069Z" fill="#5e6c7f" fill-rule="nonzero" opacity="1" stroke="#23223e" stroke-linecap="butt" stroke-linejoin="round" stroke-width="10"/>
    <path d="M554.03 623.438L902.471 623.438C908.817 623.438 913.961 628.582 913.961 634.928L913.961 734.305C913.961 740.65 908.817 745.795 902.471 745.795L554.03 745.795C547.684 745.795 542.54 740.65 542.54 734.305L542.54 634.928C542.54 628.582 547.684 623.438 554.03 623.438Z" fill="#ebdfc6" fill-rule="nonzero" opacity="1" stroke="#23223e" stroke-linecap="butt" stroke-linejoin="round" stroke-width="10"/>
    </g>
    </g>
</svg>
